# xmcd
#
# Track frame offsets:
#	183
#	13923
#	25713
#	37750
#	50310
#	59973
#	73078
#	86468
#	97203
#	107413
#	120380
#	131418
#	143345
#	155153
#	173703
#	186495
#
# Disc length: 2648 seconds
#
# Revision: 0
# Processed by: cddbd v1.4PL0 Copyright (c) Steve Scherf et al.
# Submitted via: MusicWizard 6.0.0
#
DISCID=d70a5610
DTITLE=Dave Dudley - Country and Western Songs With Dave Dudley
DYEAR=1982
DGENRE=Country
TTITLE0=I Was Country Before  Barbara Mandrell
TTITLE1=Six Days On The Road
TTITLE2=Eagles Fly Alone
TTITLE3=There Ain't No Easy Run
TTITLE4=My Love Train Is Rollin' On Your Track
TTITLE5=I Can't Remember You
TTITLE6=Counterfeit Cowboy
TTITLE7=You Don't Have To Be A Baby To Cry
TTITLE8=Don't Need The Rain
TTITLE9=The Pool Shark
TTITLE10=My Town
TTITLE11=Fireball Rollled A Seven
TTITLE12=Where Did All The Cowboys Go
TTITLE13=He Doesn't Live Here Anymore
TTITLE14=Me And Ole C.B.
TTITLE15=Wave At 'em Billy Boy
EXTD=(c)Karussell Musik and Video GmbH Germany/Metronome
EXTT0=
EXTT1=
EXTT2=
EXTT3=
EXTT4=
EXTT5=
EXTT6=
EXTT7=
EXTT8=
EXTT9=
EXTT10=
EXTT11=
EXTT12=
EXTT13=
EXTT14=
EXTT15=
PLAYORDER=
